<?xml version="1.0" standalone="no"?><svg viewBox="0 0 121 36" style="background-color:#ffffff00" version="1.1" xmlns="http://www.w3.org/2000/svg" xmlns:xlink="http://www.w3.org/1999/xlink" xml:space="preserve" x="0px" y="0px" width="121px" height="36px">	<g id="Layer%201">		<g>			<path d="M 105.1 8.9 C 104.5 8.9 104.4 9.2 104.4 9.6 L 104.4 9.9 L 105.2 9.9 L 105.2 10.7 L 104.4 10.7 L 104.4 14.6 L 103.1 14.6 L 103.1 10.7 L 102.6 10.7 L 102.6 9.9 L 103.1 9.9 L 103.1 9.5 C 103.1 8.6 103.7 8.1 104.8 8.1 C 105 8.1 105.2 8.1 105.3 8.1 L 105.3 9 L 105.1 9 L 105.1 8.9 Z" fill="#ffffff"/>			<path d="M 112.9 29 L 112.9 23.1 C 112.9 22.4 112.5 21.8 111.6 21.8 C 111 21.8 110.6 21.9 110.3 22.3 C 110.4 22.5 110.4 22.8 110.4 23.4 L 110.4 29 L 108.5 29 L 108.5 23.1 C 108.5 22.4 108.4 21.7 107.2 21.7 C 106.5 21.7 106.3 21.8 106 22 L 106 29 L 104.1 29 L 104.1 21.2 C 104.8 20.9 105.8 20.6 107.2 20.6 C 108.4 20.6 109.2 20.8 109.6 21.2 C 110.2 20.8 110.9 20.6 112 20.6 C 113.9 20.6 114.8 21.7 114.8 23.1 L 114.8 29 L 112.9 29 L 112.9 29 Z" fill="#ffffff"/>			<path d="M 93.4 16.5 C 92.7 16.5 92.1 16.4 91.8 16.2 L 92 15.4 C 92.3 15.6 92.7 15.7 93.2 15.7 C 94 15.7 94.2 15.3 94.2 14.7 L 94.2 14.4 C 94.1 14.5 93.7 14.6 93.2 14.6 C 92.1 14.6 91.6 14 91.6 13.1 L 91.6 9.9 L 92.8 9.9 L 92.8 13 C 92.8 13.4 93 13.8 93.6 13.8 C 93.9 13.8 94.1 13.7 94.2 13.6 L 94.2 9.9 L 95.5 9.9 L 95.5 14.4 C 95.5 15.9 94.6 16.5 93.4 16.5 L 93.4 16.5 Z" fill="#ffffff"/>			<path d="M 90 14.7 C 89.1 14.7 88.6 14.2 88.6 13.4 L 88.6 10.7 L 88.1 10.7 L 88.1 9.8 L 88.6 9.8 L 88.6 8.9 L 89.9 8.5 L 89.9 9.8 L 90.7 9.8 L 90.7 10.7 L 89.9 10.7 L 89.9 13.3 C 89.9 13.7 90.1 13.8 90.4 13.8 C 90.6 13.8 90.7 13.8 90.8 13.8 L 90.8 14.6 C 90.7 14.6 90.5 14.7 90 14.7 L 90 14.7 Z" fill="#ffffff"/>			<path d="M 86 14.6 L 86 9.8 L 87.3 9.8 L 87.3 14.6 L 86 14.6 Z" fill="#ffffff"/>			<path d="M 83.4 14.7 C 82.8 14.7 82.3 14.6 82 14.4 L 82.3 13.6 C 82.5 13.7 82.8 13.8 83.2 13.8 C 83.7 13.8 84 13.7 84 13.3 C 84 13 83.7 12.8 83.2 12.6 C 82.3 12.2 82.1 11.7 82.1 11.2 C 82.1 10.4 82.7 9.8 83.7 9.8 C 84.3 9.8 84.7 9.9 85.1 10.1 L 84.7 10.8 C 84.6 10.7 84.2 10.6 83.9 10.6 C 83.4 10.6 83.2 10.8 83.2 11.1 C 83.2 11.4 83.5 11.5 84 11.7 C 84.9 12.1 85.1 12.6 85.1 13.2 C 85.2 14.1 84.5 14.7 83.4 14.7 L 83.4 14.7 Z" fill="#ffffff"/>			<path d="M 81.6 10.7 C 81.5 10.7 81.2 10.6 81 10.6 C 80.8 10.6 80.6 10.7 80.4 10.7 L 80.4 14.6 L 79.2 14.6 L 79.2 10.1 C 79.4 10 80.1 9.8 80.9 9.8 C 81.4 9.8 81.6 9.8 81.7 9.9 L 81.6 10.7 L 81.6 10.7 Z" fill="#ffffff"/>			<path d="M 93.4 29 L 93.4 23.3 C 93.4 22.5 93.1 21.9 92.1 21.9 C 91.5 21.9 91.1 22 90.7 22.3 L 90.7 29 L 88.8 29 L 88.8 17.9 L 90.7 17.9 L 90.7 21 C 91.2 20.8 91.9 20.6 92.5 20.6 C 94.6 20.6 95.3 21.9 95.3 23.1 L 95.3 29 L 93.4 29 L 93.4 29 Z" fill="#ffffff"/>			<path d="M 68.4 9.3 C 67.9 9.3 67.7 9 67.7 8.6 C 67.7 8.3 68 8 68.4 8 C 68.8 8 69.1 8.3 69.1 8.6 C 69.1 9 68.8 9.3 68.4 9.3 L 68.4 9.3 Z" fill="#ffffff"/>			<path d="M 72.4 14.6 L 71.2 14.6 L 69.6 9.8 L 71 9.8 L 71.6 12.1 C 71.7 12.3 71.8 12.9 71.9 13.1 L 71.9 13.1 C 71.9 12.9 72.1 12.3 72.1 12.1 L 72.8 9.8 L 74 9.8 L 72.4 14.6 L 72.4 14.6 Z" fill="#ffffff"/>			<path d="M 67.7 14.6 L 67.7 9.8 L 69 9.8 L 69 14.6 L 67.7 14.6 Z" fill="#ffffff"/>			<path d="M 86.7 9.3 C 86.2 9.3 86 9 86 8.6 C 86 8.3 86.2 8 86.7 8 C 87.1 8 87.3 8.3 87.3 8.6 C 87.3 9 87.1 9.3 86.7 9.3 L 86.7 9.3 Z" fill="#ffffff"/>			<path d="M 65.6 14.6 L 65.6 11.3 C 65.6 10.9 65.4 10.6 64.8 10.6 C 64.5 10.6 64.3 10.7 64.2 10.7 L 64.2 14.6 L 62.9 14.6 L 62.9 10.1 C 63.4 9.9 64.1 9.8 64.9 9.8 C 66.3 9.8 66.8 10.5 66.8 11.3 L 66.8 14.6 L 65.6 14.6 L 65.6 14.6 Z" fill="#ffffff"/>			<path d="M 70.8 19.7 C 70.1 19.7 69.7 19.2 69.7 18.7 C 69.7 18.2 70.1 17.7 70.8 17.7 C 71.5 17.7 71.9 18.2 71.9 18.7 C 71.9 19.2 71.5 19.7 70.8 19.7 L 70.8 19.7 Z" fill="#ffffff"/>			<path d="M 77.6 29 L 77.6 23.1 C 77.6 22.5 77.4 21.7 76.2 21.7 C 75.6 21.7 75.3 21.8 74.9 22 L 74.9 29 L 73.1 29 L 73.1 21.3 C 73.8 20.9 74.9 20.6 76.3 20.6 C 78.7 20.6 79.5 21.8 79.5 23.1 L 79.5 29 L 77.6 29 L 77.6 29 Z" fill="#ffffff"/>			<path d="M 59.9 14.7 C 58.7 14.7 57.7 14.1 57.7 12.8 L 57.7 8.6 L 59 8.6 L 59 12.8 C 59 13.4 59.4 13.7 59.9 13.7 C 60.4 13.7 60.7 13.4 60.7 12.8 L 60.7 8.6 L 62 8.6 L 62 12.8 C 62 14.1 61.1 14.7 59.9 14.7 L 59.9 14.7 Z" fill="#ffffff"/>			<path d="M 69.9 29 L 69.9 20.7 L 71.7 20.7 L 71.7 29 L 69.9 29 Z" fill="#ffffff"/>			<path d="M 67.5 29.1 C 65.9 29.1 65.3 28.2 65.3 26.8 L 65.3 21.9 L 64.3 21.9 L 64.3 20.7 L 65.3 20.7 L 65.3 19.1 L 67.1 18.5 L 67.1 20.7 L 68.4 20.7 L 68.4 21.9 L 67.1 21.9 L 67.1 26.8 C 67.1 27.6 67.5 27.8 68 27.8 C 68.2 27.8 68.4 27.8 68.6 27.8 L 68.6 29 C 68.4 29 67.9 29.1 67.5 29.1 L 67.5 29.1 Z" fill="#ffffff"/>			<path d="M 62.7 29.1 C 61 29.1 60.4 28.2 60.4 26.8 L 60.4 21.9 L 59.5 21.9 L 59.5 20.7 L 60.4 20.7 L 60.4 19.1 L 62.3 18.5 L 62.3 20.7 L 63.6 20.7 L 63.6 21.9 L 62.3 21.9 L 62.3 26.8 C 62.3 27.6 62.7 27.8 63.2 27.8 C 63.3 27.8 63.5 27.8 63.7 27.8 L 63.7 29 C 63.5 29 63.1 29.1 62.7 29.1 L 62.7 29.1 Z" fill="#ffffff"/>			<path d="M 49.2 14.6 L 49.2 11.3 C 49.2 10.9 49 10.6 48.4 10.6 C 48.1 10.6 48 10.7 47.8 10.8 L 47.8 14.6 L 46.5 14.6 L 46.5 8.1 L 47.8 8.1 L 47.8 10 C 48 9.9 48.3 9.8 48.7 9.8 C 50 9.8 50.4 10.5 50.4 11.2 L 50.4 14.6 L 49.2 14.6 L 49.2 14.6 Z" fill="#ffffff"/>			<path d="M 44.6 9.6 L 44.6 14.6 L 43.3 14.6 L 43.3 9.6 L 42.1 9.6 L 42.1 8.6 L 45.9 8.6 L 45.9 9.6 L 44.6 9.6 Z" fill="#ffffff"/>			<path d="M 23.2 8.2 L 23.2 5.4 C 24.6 5.7 25.6 6.2 26.7 6.8 L 26.7 9.4 C 25.6 8.9 24.4 8.5 23.2 8.2 L 23.2 8.2 Z" fill="#ffffff"/>			<path d="M 49.3 29 L 45.3 22.4 C 45.1 22 44.9 21.6 44.7 21.1 L 44.7 21.1 C 44.7 21.6 44.8 22 44.8 22.4 L 44.8 29 L 43 29 L 43 18.5 L 44.9 18.5 L 48.5 24.6 C 48.8 25 48.9 25.4 49.1 25.8 L 49.1 25.8 C 49.1 25.3 49.1 25 49.1 24.6 L 49.1 18.5 L 50.9 18.5 L 50.9 29 L 49.3 29 L 49.3 29 Z" fill="#ffffff"/>			<path d="M 21.2 22.4 L 21.4 16.6 C 21.4 16.2 21.6 16 22 16 C 22.4 16 22.6 16.2 22.6 16.6 L 22.8 22.4 L 21.2 22.4 L 21.2 22.4 Z" fill="#ffffff"/>			<path d="M 22 33.4 C 20 33.4 18.6 32.8 17 32 C 15.6 31.2 14.2 30.8 12.4 30.8 C 10.7 30.8 8.7 31.2 6.5 32.5 C 8.3 29.9 10.7 29.1 13 29.1 C 15.4 29.1 17.2 29.8 18.9 30.7 C 20.5 31.5 21.7 31.9 23.4 31.9 C 24.9 31.9 26.5 31.5 27.9 30.2 C 26.1 32.6 23.9 33.4 22 33.4 L 22 33.4 Z" fill="#ffffff"/>			<path d="M 100 9.8 C 98.6 9.8 97.9 10.8 97.9 12.2 C 97.9 13.6 98.6 14.7 100 14.7 C 101.4 14.7 102.1 13.6 102.1 12.2 C 102.1 10.8 101.4 9.8 100 9.8 L 100 9.8 ZM 100 13.9 C 99.3 13.9 99.2 13.1 99.2 12.2 C 99.2 11.3 99.3 10.6 100 10.6 C 100.6 10.6 100.8 11.3 100.8 12.2 C 100.8 13.1 100.6 13.9 100 13.9 L 100 13.9 Z" fill="#ffffff"/>			<path d="M 99.6 20.6 C 98.4 20.6 97.4 21 96.8 21.2 L 97.2 22.3 C 97.7 22.1 98.5 21.8 99.3 21.8 C 100.3 21.8 100.9 22.1 100.9 23.2 L 100.9 23.7 C 100.8 23.6 100.2 23.5 99.7 23.5 C 97.8 23.5 96.3 24.5 96.3 26.4 C 96.3 28 97.4 29.2 99.7 29.2 C 101 29.2 102 29 102.7 28.7 L 102.7 23.5 C 102.7 21.3 101.4 20.6 99.6 20.6 L 99.6 20.6 ZM 100.9 27.9 C 100.7 28 100.3 28.2 99.8 28.2 C 98.8 28.2 98.2 27.5 98.2 26.4 C 98.2 25.3 98.7 24.6 99.9 24.6 C 100.4 24.6 100.7 24.7 100.9 24.7 L 100.9 27.9 L 100.9 27.9 Z" fill="#ffffff"/>			<path d="M 78.4 12.1 C 78.4 10.6 77.6 9.8 76.3 9.8 C 75 9.8 74.2 10.7 74.2 12.2 C 74.2 13.8 75.1 14.7 76.5 14.7 C 77.3 14.7 77.8 14.6 78.2 14.3 L 77.9 13.5 C 77.6 13.7 77.2 13.8 76.7 13.8 C 76.1 13.8 75.5 13.5 75.5 12.6 L 78.4 12.6 L 78.4 12.1 L 78.4 12.1 ZM 77.2 11.8 L 75.4 11.8 C 75.4 10.9 75.8 10.6 76.3 10.6 C 76.8 10.6 77.2 10.9 77.2 11.8 L 77.2 11.8 L 77.2 11.8 Z" fill="#ffffff"/>			<path d="M 84.7 20.6 C 82 20.6 80.7 22.3 80.7 24.9 C 80.7 27.5 82 29 84 29 C 84.7 29 85.3 28.9 85.6 28.7 L 85.6 29.2 C 85.6 30.4 85 31 83.7 31 C 82.7 31 82.2 30.8 81.7 30.6 L 81.2 31.7 C 81.8 32.1 82.7 32.4 84 32.4 C 86 32.4 87.4 31.2 87.4 29 L 87.4 21.1 C 86.9 20.9 85.9 20.6 84.7 20.6 L 84.7 20.6 ZM 85.6 27.5 C 85.3 27.7 84.9 27.8 84.5 27.8 C 83.2 27.8 82.6 26.8 82.6 24.9 C 82.6 23 83.2 21.7 84.6 21.7 C 85 21.7 85.3 21.7 85.6 21.9 L 85.6 27.5 L 85.6 27.5 Z" fill="#ffffff"/>			<path d="M 55.2 12.1 C 55.2 10.6 54.4 9.8 53.1 9.8 C 51.8 9.8 51 10.7 51 12.2 C 51 13.8 51.9 14.7 53.3 14.7 C 54.1 14.7 54.6 14.6 55 14.3 L 54.7 13.5 C 54.4 13.7 54 13.8 53.5 13.8 C 52.9 13.8 52.4 13.5 52.3 12.6 L 55.2 12.6 L 55.2 12.1 L 55.2 12.1 ZM 54 11.8 L 52.2 11.8 C 52.2 10.9 52.6 10.6 53.1 10.6 C 53.6 10.6 54 10.9 54 11.8 L 54 11.8 L 54 11.8 Z" fill="#ffffff"/>			<path d="M 55.5 20.6 C 53.2 20.6 52 22.4 52 24.9 C 52 27.4 53.2 29.1 55.5 29.1 C 57.8 29.1 59 27.4 59 24.9 C 59 22.4 57.8 20.6 55.5 20.6 L 55.5 20.6 ZM 55.6 28 C 54.3 28 54.1 26.3 54.1 24.9 C 54.1 23.4 54.3 21.7 55.6 21.7 C 56.9 21.7 57.1 23.4 57.1 24.9 C 57.1 26.3 56.9 28 55.6 28 L 55.6 28 Z" fill="#ffffff"/>			<path d="M 23.2 8.8 C 22.5 8.6 21.7 8.5 20.9 8.4 L 20.9 4.9 C 20 4.7 19.1 4.7 18.2 4.7 C 17.3 4.7 16.5 4.8 15.7 4.9 L 15.7 8.2 C 14.9 8.3 14.1 8.4 13.4 8.6 L 13.4 5.3 C 12 5.7 10.8 6.2 9.6 6.8 L 9.6 13.7 L 11.2 15.2 L 10.7 22.9 L 9.5 24.2 L 9.5 28.7 L 9.9 29.1 C 10.9 28.6 12.2 28.1 13.8 28.1 C 15.4 28.1 17.1 28.5 19.1 29.6 L 19.1 23.9 L 18.3 22.9 L 18.3 15 L 19.9 12.5 L 19.3 14.9 C 19.7 14.8 20.2 14.8 20.7 14.8 C 22.3 14.8 23.7 15.1 25 15.6 L 26.6 14.1 L 26.6 10 C 25.6 9.5 24.4 9.1 23.2 8.8 L 23.2 8.8 ZM 13.5 22.4 L 13.6 16.6 C 13.6 16.2 13.9 16 14.3 16 C 14.6 16 14.9 16.2 14.9 16.6 L 15.1 22.4 L 13.5 22.4 L 13.5 22.4 Z" fill="#ffffff"/>			<path d="M 35.2 35.1 L 33.8 35.1 L 33.8 3.1 L 35.2 3.1 L 35.2 35.1 Z" fill="#ffffff"/>		</g>	</g></svg>